<svg width="621" height="515" viewBox="0 0 621 515" fill="none" xmlns="http://www.w3.org/2000/svg">
<g clip-path="url(#clip0_142_768)">
<path fill-rule="evenodd" clip-rule="evenodd" d="M571.527 372.058L591.381 314.834C597.273 297.851 592.804 278.992 579.917 266.458L579.358 265.914C566.403 253.314 560.079 235.385 562.262 217.446L569.708 156.243C573.568 124.521 550.981 95.6752 519.258 91.8154C517.641 91.6187 516.017 91.4903 514.389 91.4307L490.519 90.5554L441.809 44.0589C425.21 28.2146 400.453 24.492 379.929 34.7542L324.771 62.3331C315.839 66.7991 305.903 68.8774 295.93 68.366L251.159 66.07C227.273 64.8451 206.089 81.2884 201.35 104.732L193.845 141.86C193.352 144.301 193.017 146.771 192.842 149.255L185.804 249.09C185.466 253.876 184.23 258.554 182.161 262.882L162.806 303.35C156.785 315.941 155.517 330.283 159.236 343.734L167.066 372.058H571.527Z" fill="#C4C4DE"/>
<path fill-rule="evenodd" clip-rule="evenodd" d="M167.066 372.058L115.157 428.405C99.7834 445.093 100.849 471.083 117.536 486.456C124.65 493.009 133.847 496.843 143.508 497.281L528.581 514.765C551.247 515.794 570.456 498.254 571.485 475.588C571.513 474.967 571.527 474.346 571.527 473.725V372.058H167.066Z" fill="#8B8BB5"/>
<mask id="mask0_142_768" style="mask-type:alpha" maskUnits="userSpaceOnUse" x="245" y="0" width="376" height="237">
<path d="M261.093 186.318V0H245.47V194.13C245.47 198.444 248.968 201.941 253.282 201.941H380.708C389.805 201.941 398.73 204.421 406.523 209.113L435.687 226.671C445.914 232.827 457.624 236.08 469.561 236.08H621V220.457H469.561C460.464 220.457 451.539 217.978 443.745 213.286L414.581 195.728C404.355 189.571 392.644 186.318 380.708 186.318H261.093Z" fill="white"/>
</mask>
<g mask="url(#mask0_142_768)">
<path d="M261.093 186.318V0H245.47V194.13C245.47 198.444 248.968 201.941 253.282 201.941H380.708C389.805 201.941 398.73 204.421 406.523 209.113L435.687 226.671C445.914 232.827 457.624 236.08 469.561 236.08H621V220.457H469.561C460.464 220.457 451.539 217.978 443.745 213.286L414.581 195.728C404.355 189.571 392.644 186.318 380.708 186.318H261.093Z" fill="#FF8484"/>
<path fill-rule="evenodd" clip-rule="evenodd" d="M552.433 215.828H635.755V244.181H552.433V215.828ZM227.822 181.689H311.145V210.042H227.822V181.689ZM240.841 114.279V43.3972H275.848L269.194 114.279H240.841ZM406.908 175.903L474.028 207.728V236.08C472.102 243.444 464.194 246.53 450.305 245.338C436.416 244.147 415.103 238.553 386.366 228.558L406.908 175.903Z" fill="#DE6262"/>
</g>
<path fill-rule="evenodd" clip-rule="evenodd" d="M342.391 236.659L150.286 52.366L133.506 289.893L338.63 253.439L342.391 236.659Z" fill="#FFEECD"/>
<mask id="mask1_142_768" style="mask-type:alpha" maskUnits="userSpaceOnUse" x="38" y="42" width="167" height="243">
<path d="M73.7376 281.179C111.496 296.416 163.423 256.064 189.721 191.052C216.02 126.039 206.73 60.9831 168.972 45.746C131.214 30.5089 79.2859 70.8602 52.9878 135.873C26.6896 200.886 35.9796 265.942 73.7376 281.179Z" fill="white"/>
</mask>
<g mask="url(#mask1_142_768)">
<path d="M132.37 289.966C172.93 286.401 200.879 226.873 194.795 157.007C188.712 87.1404 150.9 33.3931 110.34 36.9586C69.7796 40.524 41.8307 100.052 47.9141 169.918C53.9975 239.784 91.8095 293.531 132.37 289.966Z" fill="#F5CB76"/>
<path d="M200.627 245.628V256.043H138.135V245.628H108.625V234.055H169.381H231.294V245.628H200.627ZM199.469 245.628H169.381H139.292V254.886H199.469V245.628ZM138.135 244.471H169.381V235.213H109.782V244.471H138.135ZM170.538 244.471H200.627H230.137V235.213H170.538V244.471ZM124.248 80.7188H93.5805V89.9769H153.179V80.7188H124.248ZM124.248 79.5615H154.336V91.1341H93.5805H31.0886V79.5615H62.3346V69.1462H124.248V79.5615ZM92.4232 89.9769V80.7188H62.3346H32.2459V89.9769H92.4232ZM123.091 79.5615V70.3035H63.4918V79.5615H92.4232H123.091ZM61.1773 106.757H123.091V118.33H61.1773H0.421387V106.757H61.1773ZM61.1773 117.172V107.914H1.57864V117.172H61.1773ZM62.3346 117.172H121.933V107.914H62.3346V117.172Z" fill="white"/>
<path d="M230.715 272.244H169.959V282.66H230.715V272.244Z" stroke="white" stroke-width="1.15726"/>
<path d="M261.383 245.628H200.627V256.043H261.383V245.628Z" stroke="white" stroke-width="1.15726"/>
</g>
<path fill-rule="evenodd" clip-rule="evenodd" d="M331.377 260.383C321.374 277.074 321.374 286.748 331.377 289.403C341.38 292.059 349.873 283.903 356.856 264.935L331.377 260.383Z" fill="#353535"/>
<path d="M343.259 464.638C411.167 464.638 466.217 457.903 466.217 449.594C466.217 441.285 411.167 434.55 343.259 434.55C275.35 434.55 220.3 441.285 220.3 449.594C220.3 457.903 275.35 464.638 343.259 464.638Z" fill="#353535"/>
<mask id="mask2_142_768" style="mask-type:alpha" maskUnits="userSpaceOnUse" x="139" y="245" width="396" height="243">
<path d="M491.904 442.526L505.189 451.914C505.282 451.979 505.372 452.049 505.458 452.123C506.986 453.433 507.163 455.733 505.853 457.261C504.283 459.092 501.736 459.747 499.478 458.901C484.446 453.266 475.77 449.199 473.45 446.701L437.864 415.744L392.731 404.461L389.838 463.481C386.17 463.802 383.374 463.995 381.448 464.06C364.089 464.638 350.01 464.85 340.783 464.993C331.528 465.137 320.652 464.993 304.887 464.509C303.419 464.463 300.427 464.14 295.913 463.539L301.977 400.261L264.694 438.113C261.724 441.129 258.432 443.81 254.877 446.107L221.019 467.988C217.139 470.495 212.824 472.254 208.297 473.175L139.292 487.205C138.282 478.98 141.657 471.554 149.418 464.928C156.191 459.144 178.753 455.224 194.84 454.223C196.378 454.127 209.631 443.228 234.6 421.524C235.479 420.759 236.306 419.935 237.073 419.057L279.695 370.257C289.98 358.482 304.669 351.476 320.292 350.893L342.391 350.07L347.331 327.77H335.297C326.35 327.77 319.096 320.516 319.096 311.568C319.096 309.788 319.389 308.019 319.964 306.335L331.959 271.192C337.236 255.73 351.764 245.338 368.101 245.338H376.194C389.931 245.338 401.067 256.474 401.067 270.211C401.067 273.088 400.567 275.943 399.592 278.649L372.479 353.831L445.819 380.674C455.756 384.311 464.504 390.603 471.114 398.865L491.098 423.845C508.457 423.073 517.908 424.038 519.451 426.738C520.732 428.98 525.272 433.95 533.072 441.646C534.62 443.174 534.637 445.667 533.109 447.215C532.578 447.753 531.905 448.127 531.168 448.292C526.69 449.297 521.998 448.204 518.425 445.323L515.111 442.65C503.232 443.298 495.71 443.298 492.545 442.65C492.33 442.607 492.117 442.565 491.904 442.526Z" fill="white"/>
</mask>
<g mask="url(#mask2_142_768)">
<path d="M491.904 442.526L505.189 451.914C505.282 451.979 505.372 452.049 505.458 452.123C506.986 453.433 507.163 455.733 505.853 457.261C504.283 459.092 501.736 459.747 499.478 458.901C484.446 453.266 475.77 449.199 473.45 446.701L437.864 415.744L392.731 404.461L389.838 463.481C386.17 463.802 383.374 463.995 381.448 464.06C364.089 464.638 350.01 464.85 340.783 464.993C331.528 465.137 320.652 464.993 304.887 464.509C303.419 464.463 300.427 464.14 295.913 463.539L301.977 400.261L264.694 438.113C261.724 441.129 258.432 443.81 254.877 446.107L221.019 467.988C217.139 470.495 212.824 472.254 208.297 473.175L139.292 487.205C138.282 478.98 141.657 471.554 149.418 464.928C156.191 459.144 178.753 455.224 194.84 454.223C196.378 454.127 209.631 443.228 234.6 421.524C235.479 420.759 236.306 419.935 237.073 419.057L279.695 370.257C289.98 358.482 304.669 351.476 320.292 350.893L342.391 350.07L347.331 327.77H335.297C326.35 327.77 319.096 320.516 319.096 311.568C319.096 309.788 319.389 308.019 319.964 306.335L331.959 271.192C337.236 255.73 351.764 245.338 368.101 245.338H376.194C389.931 245.338 401.067 256.474 401.067 270.211C401.067 273.088 400.567 275.943 399.592 278.649L372.479 353.831L445.819 380.674C455.756 384.311 464.504 390.603 471.114 398.865L491.098 423.845C508.457 423.073 517.908 424.038 519.451 426.738C520.732 428.98 525.272 433.95 533.072 441.646C534.62 443.174 534.637 445.667 533.109 447.215C532.578 447.753 531.905 448.127 531.168 448.292C526.69 449.297 521.998 448.204 518.425 445.323L515.111 442.65C503.232 443.298 495.71 443.298 492.545 442.65C492.33 442.607 492.117 442.565 491.904 442.526Z" fill="#FFCDCD"/>
<path fill-rule="evenodd" clip-rule="evenodd" d="M329.082 349.202C334.29 358.074 342.969 363.089 355.12 364.246C367.272 365.404 376.144 362.51 381.737 355.567L443.072 367.953L417.323 415.166L404.304 413.43L392.913 464.335L286.295 471.582L302.288 401.047L286.295 431L241.709 381.48C260.971 362.544 278.014 351.11 292.837 347.179C307.661 343.248 319.742 343.922 329.082 349.202Z" fill="#FFF9D6"/>
</g>
<path fill-rule="evenodd" clip-rule="evenodd" d="M392.553 275.071L404.302 277.883C404.406 297.846 399.163 306.52 388.576 303.904C383.282 302.595 380.284 299.375 379.583 294.243C375.134 297.875 370.504 298.869 365.691 297.226C355.93 293.894 355.476 284.12 364.33 267.905L392.731 274.676C392.672 274.808 392.612 274.94 392.553 275.071Z" fill="#353535"/>
<mask id="mask3_142_768" style="mask-type:alpha" maskUnits="userSpaceOnUse" x="326" y="239" width="84" height="42">
<path d="M326.768 259.206L409.511 280.056C406.081 276.823 404.442 274.356 404.592 272.654C406.298 253.355 395.592 247.258 373.615 242.486C351.531 237.692 344.792 237.151 335.377 253.523C334.581 254.908 331.711 256.802 326.768 259.206Z" fill="white"/>
</mask>
<g mask="url(#mask3_142_768)">
<path d="M326.768 259.206L409.511 280.056C406.081 276.823 404.442 274.356 404.592 272.654C406.298 253.355 395.592 247.258 373.615 242.486C351.531 237.692 344.792 237.151 335.377 253.523C334.581 254.908 331.711 256.802 326.768 259.206Z" fill="#3C3CA0"/>
<path fill-rule="evenodd" clip-rule="evenodd" d="M343.548 252.861L406.329 269.641L408.065 262.987L345.862 244.181L343.548 252.861Z" fill="#26266F"/>
</g>
<path d="M340.365 256.332C346.597 256.332 351.649 251.281 351.649 245.049C351.649 238.818 346.597 233.766 340.365 233.766C334.134 233.766 329.082 238.818 329.082 245.049C329.082 251.281 334.134 256.332 340.365 256.332Z" fill="#F5CB76"/>
<path d="M340.365 253.439C345.319 253.439 349.334 249.683 349.334 245.049C349.334 240.415 345.319 236.659 340.365 236.659C335.412 236.659 331.397 240.415 331.397 245.049C331.397 249.683 335.412 253.439 340.365 253.439Z" fill="#FFEECD"/>
<path d="M336.796 274.198C335.57 271.301 333.795 269.93 331.397 269.93V268.194C334.39 268.194 336.665 269.838 338.158 272.993C343.964 269.533 348.84 270.796 352.393 276.716C352.639 277.127 352.506 277.66 352.095 277.907C351.684 278.154 351.151 278.02 350.904 277.609C347.724 272.308 343.705 271.424 338.407 274.884L326.404 295.191L333.441 296.563C333.912 296.655 334.219 297.11 334.127 297.581C334.035 298.051 333.579 298.358 333.109 298.267L324.866 296.66C324.277 296.545 323.979 295.883 324.285 295.366L336.796 274.198ZM343.548 282.37C342.27 282.37 341.233 281.334 341.233 280.056C341.233 278.778 342.27 277.741 343.548 277.741C344.826 277.741 345.862 278.778 345.862 280.056C345.862 281.334 344.826 282.37 343.548 282.37ZM331.397 278.899C330.118 278.899 329.082 277.862 329.082 276.584C329.082 275.306 330.118 274.27 331.397 274.27C332.675 274.27 333.711 275.306 333.711 276.584C333.711 277.862 332.675 278.899 331.397 278.899ZM327.717 308.215C325.083 307.497 323.43 305.317 324.024 303.346C324.618 301.376 327.235 300.361 329.869 301.08C332.502 301.799 334.156 303.979 333.562 305.949C332.967 307.919 330.351 308.934 327.717 308.215ZM321.035 315.92C321.201 315.47 321.7 315.24 322.149 315.406C322.599 315.572 322.829 316.07 322.664 316.52L320.638 322.017C320.473 322.467 319.974 322.697 319.524 322.532C319.074 322.366 318.844 321.867 319.01 321.417L321.035 315.92ZM324.507 317.077C324.672 316.628 325.171 316.397 325.621 316.563C326.071 316.729 326.301 317.228 326.135 317.678L324.11 323.174C323.945 323.624 323.446 323.855 322.996 323.689C322.546 323.523 322.316 323.024 322.481 322.574L324.507 317.077ZM327.978 318.235C328.144 317.785 328.643 317.555 329.093 317.72C329.543 317.886 329.773 318.385 329.607 318.835L327.582 324.332C327.416 324.782 326.917 325.012 326.468 324.846C326.018 324.68 325.787 324.181 325.953 323.732L327.978 318.235Z" fill="#353535"/>
<path fill-rule="evenodd" clip-rule="evenodd" d="M423.977 89.9766V101.549H363.221H300.729V89.9766H312.302V78.4041H373.058H434.971V89.9766H423.977ZM373.058 113.7H434.971V125.273H373.058V113.7ZM232.451 324.321V335.315H169.959V324.321H139.292V312.748H200.048H261.961V324.321H232.451ZM563.427 177.349H594.672V188.922H533.917H471.425V177.349H440.757V165.777H501.513H563.427V177.349ZM517.715 308.409H558.798V319.981H496.884V308.987H455.802V297.415H517.715V308.409Z" fill="#8B8BB5"/>
<path d="M61.756 69.7246H1V80.1399H61.756V69.7246Z" stroke="white" stroke-width="1.15726"/>
<path d="M102.531 174.472V179.925H97.5083V184.015H91.0508V179.925H73.3286V174.472L91.0508 158.903H97.5083V174.472H102.531ZM80.2883 174.472H91.0508V165.36L80.2883 174.472ZM118.926 184.374C108.952 184.374 104.217 179.782 104.217 171.423C104.217 163.1 108.952 158.544 118.926 158.544C128.863 158.544 133.634 163.136 133.634 171.423C133.634 179.746 128.863 184.374 118.926 184.374ZM118.926 178.957C124.594 178.957 127.177 176.123 127.177 171.423C127.177 166.759 124.594 163.961 118.926 163.961C113.257 163.961 110.674 166.723 110.674 171.423C110.674 176.159 113.257 178.957 118.926 178.957ZM164.953 174.472V179.925H159.931V184.015H153.473V179.925H135.751V174.472L153.473 158.903H159.931V174.472H164.953ZM142.711 174.472H153.473V165.36L142.711 174.472Z" fill="white"/>
<path fill-rule="evenodd" clip-rule="evenodd" d="M372.479 194.998H377.687V206.57H372.479V194.998ZM503.249 228.558H508.457V240.131H503.249V228.558Z" fill="#8B8BB5"/>
<path fill-rule="evenodd" clip-rule="evenodd" d="M429.185 454.223H335.447V464.928H326.768V429.053C326.768 426.656 328.711 424.713 331.107 424.713C333.504 424.713 335.447 426.656 335.447 429.053V445.544H429.185V429.053C429.185 426.656 431.128 424.713 433.525 424.713C435.921 424.713 437.864 426.656 437.864 429.053V459.142L429.185 460.299V454.223Z" fill="#FF8484"/>
<path d="M166.561 473.344C162.74 474.491 160.123 478.008 160.123 481.997C160.123 482.477 160.511 482.865 160.991 482.865C161.47 482.865 161.859 482.477 161.859 481.997C161.859 478.774 163.973 475.933 167.059 475.007L175.706 472.413C175.965 472.335 176.174 472.141 176.269 471.887C176.613 470.97 179.018 469.398 183.335 467.455C187.339 465.653 189.581 465.354 192.28 465.699L192.648 465.746C192.792 465.765 192.902 465.778 193.009 465.79C193.485 465.843 193.914 465.5 193.967 465.024C194.02 464.547 193.677 464.118 193.2 464.065C193.106 464.054 193.004 464.042 192.869 464.025C192.828 464.019 192.576 463.987 192.499 463.977C189.492 463.593 186.927 463.935 182.622 465.872C178.262 467.834 175.708 469.424 174.848 470.858L166.561 473.344Z" fill="#353535"/>
<path fill-rule="evenodd" clip-rule="evenodd" d="M375.372 302.425C387.106 305.473 393.931 303.197 395.847 295.598C397.3 289.835 394.258 285.081 387.585 286.693C386.168 287.035 383.447 289.645 379.423 294.522L375.372 302.425Z" fill="#FFCDCD"/>
<path d="M501.345 433.673L510.166 432.435C514.803 431.785 519.498 433.136 523.08 436.152L533.647 445.05C534.013 445.359 534.561 445.312 534.87 444.946C535.178 444.579 535.132 444.031 534.765 443.723L524.198 434.824C520.239 431.491 515.05 429.997 509.924 430.716L501.103 431.954C500.629 432.021 500.298 432.46 500.364 432.935C500.431 433.409 500.87 433.74 501.345 433.673Z" fill="#353535"/>
<path d="M362.643 90.5552H312.302V89.398H373.636V78.4041H374.794V89.398H423.977V90.5552H363.8V101.549H362.643V90.5552ZM533.338 177.928H471.714C471.394 177.928 471.135 177.669 471.135 177.349C471.135 177.03 471.394 176.771 471.714 176.771H502.092V165.777H503.249V176.771H563.426C563.746 176.771 564.005 177.03 564.005 177.349C564.005 177.669 563.746 177.928 563.426 177.928H534.495V188.922H533.338V177.928ZM496.884 309.277C496.565 309.277 496.306 309.018 496.306 308.698C496.306 308.378 496.565 308.119 496.884 308.119H517.715C518.034 308.119 518.293 308.378 518.293 308.698C518.293 309.018 518.034 309.277 517.715 309.277H496.884ZM200.048 323.742V312.748H201.205V323.742H232.451V324.9H170.538V323.742H200.048Z" fill="#353535"/>
</g>
<defs>
<clipPath id="clip0_142_768">
<rect width="621" height="515" fill="white"/>
</clipPath>
</defs>
</svg>
